<svg width="32" height="32" viewBox="0 0 32 32" fill="none" xmlns="http://www.w3.org/2000/svg">
<path d="M26.6666 8.00002V10.3867C26.3333 10.3467 25.9466 10.32 25.5333 10.32H19.8266C16.9733 10.32 16.0266 11.2667 16.0266 14.1201V20.9334H7.99996C3.73329 20.9334 2.66663 19.8667 2.66663 15.6V8.00002C2.66663 3.73335 3.73329 2.66669 7.99996 2.66669H21.3333C25.6 2.66669 26.6666 3.73335 26.6666 8.00002Z" stroke="#3D3D3D" stroke-width="2" stroke-linecap="round" stroke-linejoin="round"/>
<path d="M12 20.9333V26.6667" stroke="#3D3D3D" stroke-width="2" stroke-linecap="round" stroke-linejoin="round"/>
<path d="M2.66663 15.8667H16" stroke="#3D3D3D" stroke-width="2" stroke-linecap="round" stroke-linejoin="round"/>
<path d="M7.93323 26.6667H15.9999" stroke="#3D3D3D" stroke-width="2" stroke-linecap="round" stroke-linejoin="round"/>
<path d="M25.5067 10.3203C25.92 10.3203 26.3067 10.347 26.64 10.387C28.6133 10.6403 29.3067 11.6804 29.3067 14.1204V25.5337C29.3067 28.387 28.36 29.3337 25.5067 29.3337H19.8C16.9467 29.3337 16 28.387 16 25.5337V14.1204C16 11.267 16.9467 10.3203 19.8 10.3203H25.5067Z" stroke="#3D3D3D" stroke-width="2" stroke-miterlimit="10" stroke-linecap="round" stroke-linejoin="round"/>
<path d="M23.8877 13.3333H21.4668" stroke="#3D3D3D" stroke-width="2" stroke-linecap="round" stroke-linejoin="round"/>
</svg>
