<svg width="32" height="32" viewBox="0 0 32 32" fill="none" xmlns="http://www.w3.org/2000/svg">
<path d="M28.7777 9.86267C27.6765 7.20379 25.0564 5.33331 21.9995 5.33331C18.9425 5.33331 16.3225 7.20379 15.2213 9.86267" stroke="#3D3D3D" stroke-width="2" stroke-linecap="round"/>
<path d="M25.8409 11.5442C25.3557 9.88144 23.8199 8.66669 22.0005 8.66669C20.1811 8.66669 18.6454 9.88144 18.1602 11.5442" stroke="#3D3D3D" stroke-width="2" stroke-linecap="round"/>
<path d="M9.33329 21.3333C9.33329 22.0697 8.73634 22.6667 7.99996 22.6667C7.26358 22.6667 6.66663 22.0697 6.66663 21.3333C6.66663 20.597 7.26358 20 7.99996 20C8.73634 20 9.33329 20.597 9.33329 21.3333Z" fill="#3D3D3D"/>
<path d="M13.3333 21.3333C13.3333 22.0697 12.7363 22.6667 12 22.6667C11.2636 22.6667 10.6666 22.0697 10.6666 21.3333C10.6666 20.597 11.2636 20 12 20C12.7363 20 13.3333 20.597 13.3333 21.3333Z" fill="#3D3D3D"/>
<path d="M2.66663 21.3333C2.66663 18.8192 2.66663 17.5621 3.44767 16.781C4.22872 16 5.4858 16 7.99996 16H24C26.5141 16 27.7712 16 28.5522 16.781C29.3333 17.5621 29.3333 18.8192 29.3333 21.3333C29.3333 23.8475 29.3333 25.1046 28.5522 25.8856C27.7712 26.6667 26.5141 26.6667 24 26.6667H7.99996C5.4858 26.6667 4.22872 26.6667 3.44767 25.8856C2.66663 25.1046 2.66663 23.8475 2.66663 21.3333Z" stroke="#3D3D3D" stroke-width="2"/>
<path d="M22 16L22 12" stroke="#3D3D3D" stroke-width="2" stroke-linecap="round"/>
</svg>
