<svg width="18" height="18" viewBox="0 0 18 18" fill="none" xmlns="http://www.w3.org/2000/svg">
<path fill-rule="evenodd" clip-rule="evenodd" d="M9.00008 17.3327C13.6025 17.3327 17.3334 13.6017 17.3334 8.99935C17.3334 4.39698 13.6025 0.666016 9.00008 0.666016C4.39771 0.666016 0.666748 4.39698 0.666748 8.99935C0.666748 13.6017 4.39771 17.3327 9.00008 17.3327ZM13.5848 6.96431C13.8414 6.7334 13.8622 6.33822 13.6313 6.08165C13.4004 5.82508 13.0052 5.80429 12.7486 6.0352L7.75052 10.5335C7.67129 10.6048 7.55102 10.6048 7.47179 10.5335L5.25148 8.5353C4.99491 8.30439 4.59973 8.3252 4.36882 8.58178C4.13791 8.83835 4.15872 9.23353 4.4153 9.46444L6.6356 11.4626C7.19022 11.9618 8.03213 11.9617 8.58673 11.4626L13.5848 6.96431Z" fill="url(#paint0_linear_3247_54187)"/>
<defs>
<linearGradient id="paint0_linear_3247_54187" x1="9.00008" y1="0.666016" x2="9.00008" y2="17.3327" gradientUnits="userSpaceOnUse">
<stop stop-color="#1B76FF"/>
<stop offset="1" stop-color="#0330CF"/>
</linearGradient>
</defs>
</svg>
