<svg width="32" height="32" viewBox="0 0 32 32" fill="none" xmlns="http://www.w3.org/2000/svg">
<path d="M16.0001 29.3334C23.3639 29.3334 29.3334 23.3638 29.3334 16C29.3334 8.63622 23.3639 2.66669 16.0001 2.66669C8.63628 2.66669 2.66675 8.63622 2.66675 16C2.66675 23.3638 8.63628 29.3334 16.0001 29.3334Z" stroke="#D1D1D1" stroke-width="2" stroke-linecap="round" stroke-linejoin="round"/>
<path d="M10.6667 4H12C9.40005 11.7867 9.40005 20.2133 12 28H10.6667" stroke="#D1D1D1" stroke-width="2" stroke-linecap="round" stroke-linejoin="round"/>
<path d="M20 4C22.6 11.7867 22.6 20.2133 20 28" stroke="#D1D1D1" stroke-width="2" stroke-linecap="round" stroke-linejoin="round"/>
<path d="M4 21.3333V20C11.7867 22.6 20.2133 22.6 28 20V21.3333" stroke="#D1D1D1" stroke-width="2" stroke-linecap="round" stroke-linejoin="round"/>
<path d="M4 12C11.7867 9.39999 20.2133 9.39999 28 12" stroke="#D1D1D1" stroke-width="2" stroke-linecap="round" stroke-linejoin="round"/>
</svg>
