<svg width="20" height="20" viewBox="0 0 20 20" fill="none" xmlns="http://www.w3.org/2000/svg">
<path fill-rule="evenodd" clip-rule="evenodd" d="M13.6818 17.7218C13.5758 17.8288 13.4497 17.9138 13.3106 17.9717C13.1716 18.0297 13.0225 18.0596 12.8718 18.0596C12.7212 18.0596 12.5721 18.0297 12.433 17.9717C12.294 17.9138 12.1678 17.8288 12.0618 17.7218L5.41183 11.0618C5.14803 10.7958 5 10.4364 5 10.0618C5 9.68716 5.14803 9.32773 5.41183 9.06176L12.0618 2.41176C12.1643 2.28941 12.2911 2.18971 12.4341 2.11902C12.5772 2.04832 12.7334 2.00817 12.8928 2.00112C13.0522 1.99407 13.2114 2.02028 13.3601 2.07808C13.5088 2.13587 13.6439 2.22399 13.7568 2.33683C13.8696 2.44966 13.9577 2.58475 14.0155 2.73349C14.0733 2.88223 14.0995 3.04138 14.0925 3.2008C14.0854 3.36021 14.0453 3.51642 13.9746 3.65948C13.9039 3.80254 13.8042 3.92933 13.6818 4.03177L7.63183 10.0318L13.6818 16.0818C13.7919 16.1881 13.8795 16.3155 13.9393 16.4564C13.9991 16.5972 14.0299 16.7487 14.0299 16.9018C14.0299 17.0548 13.9991 17.2063 13.9393 17.3472C13.8795 17.488 13.7919 17.6154 13.6818 17.7218Z" fill="#3D3D3D"/>
</svg>
