<svg width="32" height="32" viewBox="0 0 32 32" fill="none" xmlns="http://www.w3.org/2000/svg">
<path d="M28.7778 9.86267C27.6766 7.20379 25.0566 5.33331 21.9996 5.33331C18.9427 5.33331 16.3226 7.20379 15.2214 9.86267" stroke="#D1D1D1" stroke-width="2" stroke-linecap="round"/>
<path d="M25.8409 11.5442C25.3557 9.88144 23.8199 8.66669 22.0005 8.66669C20.1811 8.66669 18.6454 9.88144 18.1602 11.5442" stroke="#D1D1D1" stroke-width="2" stroke-linecap="round"/>
<path d="M9.33341 21.3333C9.33341 22.0697 8.73646 22.6667 8.00008 22.6667C7.2637 22.6667 6.66675 22.0697 6.66675 21.3333C6.66675 20.597 7.2637 20 8.00008 20C8.73646 20 9.33341 20.597 9.33341 21.3333Z" fill="#D1D1D1"/>
<path d="M13.3334 21.3333C13.3334 22.0697 12.7365 22.6667 12.0001 22.6667C11.2637 22.6667 10.6667 22.0697 10.6667 21.3333C10.6667 20.597 11.2637 20 12.0001 20C12.7365 20 13.3334 20.597 13.3334 21.3333Z" fill="#D1D1D1"/>
<path d="M2.66675 21.3333C2.66675 18.8192 2.66675 17.5621 3.4478 16.781C4.22885 16 5.48592 16 8.00008 16H24.0001C26.5142 16 27.7713 16 28.5524 16.781C29.3334 17.5621 29.3334 18.8192 29.3334 21.3333C29.3334 23.8475 29.3334 25.1046 28.5524 25.8856C27.7713 26.6667 26.5142 26.6667 24.0001 26.6667H8.00008C5.48592 26.6667 4.22885 26.6667 3.4478 25.8856C2.66675 25.1046 2.66675 23.8475 2.66675 21.3333Z" stroke="#D1D1D1" stroke-width="2"/>
<path d="M22 16L22 12" stroke="#D1D1D1" stroke-width="2" stroke-linecap="round"/>
</svg>
